<svg width="15" height="15" viewBox="0 0 15 15" fill="none" xmlns="http://www.w3.org/2000/svg">
<g clip-path="url(#clip0_6195_321)">
<path d="M7.50007 14.9902C11.5506 14.9902 14.8341 11.6368 14.8341 7.50012C14.8341 3.36345 11.5506 0.0100098 7.50007 0.0100098C3.44958 0.0100098 0.166016 3.36345 0.166016 7.50012C0.166016 11.6368 3.44958 14.9902 7.50007 14.9902Z" fill="#F4F5F5"/>
<path d="M7.5003 0.0380859C3.35863 0.0380859 0 3.38745 0 7.51978C0 10.8259 2.14914 13.6302 5.1289 14.6193C5.50355 14.6884 5.64149 14.4571 5.64149 14.2594C5.64149 14.0809 5.63426 13.4914 5.63125 12.8665C3.54475 13.319 3.10445 11.9838 3.10445 11.9838C2.76352 11.1191 2.27141 10.889 2.27141 10.889C1.59077 10.4245 2.32261 10.4341 2.32261 10.4341C3.07553 10.487 3.47247 11.2051 3.47247 11.2051C4.14167 12.3491 5.22708 12.0181 5.65474 11.827C5.7222 11.3433 5.91615 11.0134 6.13119 10.8265C4.46512 10.6372 2.71413 9.99546 2.71413 7.1286C2.71413 6.31199 3.00687 5.6444 3.48693 5.12043C3.40923 4.93235 3.15263 4.17162 3.55981 3.14109C3.55981 3.14109 4.18986 2.93979 5.62282 3.90783C6.22094 3.74198 6.86243 3.65906 7.5003 3.65605C8.13757 3.65906 8.77966 3.74198 9.37899 3.90783C10.8107 2.93979 11.4396 3.14109 11.4396 3.14109C11.848 4.17162 11.5908 4.93295 11.5131 5.12103C11.9937 5.645 12.2847 6.31259 12.2847 7.1292C12.2847 10.0027 10.5301 10.636 8.85978 10.8211C9.12902 11.053 9.36875 11.5085 9.36875 12.2067C9.36875 13.2078 9.36032 14.0136 9.36032 14.26C9.36032 14.4589 9.49524 14.6926 9.87532 14.6187C12.8539 13.6284 15 10.8247 15 7.51978C15 3.38745 11.642 0.0380859 7.5003 0.0380859Z" fill="#799096"/>
</g>
<defs>
<clipPath id="clip0_6195_321">
<rect width="15" height="15" fill="white"/>
</clipPath>
</defs>
</svg>
