<svg width="22" height="22" viewBox="0 0 22 22" fill="none" xmlns="http://www.w3.org/2000/svg">
<path d="M7.33268 7.33335H7.06771C6.18489 7.33335 5.74367 7.33335 5.38566 7.49396C5.07008 7.63553 4.80122 7.86354 4.6097 8.15155C4.39242 8.47829 4.31937 8.91356 4.17424 9.78436L3.31868 14.9177L3.31834 14.9196C3.12269 16.0935 3.02481 16.6808 3.1948 17.1385C3.34406 17.5403 3.62988 17.877 4.00171 18.0903C4.42542 18.3334 5.02063 18.3334 6.21191 18.3334H15.7865C16.9778 18.3334 17.574 18.3334 17.9977 18.0903C18.3695 17.877 18.6547 17.5403 18.8039 17.1385C18.9739 16.681 18.876 16.094 18.6805 14.921L18.6798 14.9177L17.8242 9.78436C17.6791 8.91356 17.6064 8.47829 17.3892 8.15155C17.1976 7.86354 16.9286 7.63553 16.613 7.49396C16.255 7.33335 15.814 7.33335 14.9312 7.33335H14.666M7.33268 7.33335H14.666M7.33268 7.33335C7.33268 5.30831 8.97431 3.66669 10.9993 3.66669C13.0244 3.66669 14.666 5.30831 14.666 7.33335" stroke="#799096" stroke-width="1.6" stroke-linecap="round" stroke-linejoin="round"/>
</svg>
