<svg width="17" height="17" viewBox="0 0 17 17" fill="none" xmlns="http://www.w3.org/2000/svg">
<path d="M9.91732 7.08333V12.0417M7.08398 7.08333V12.0417M4.25065 4.25V12.6083C4.25065 13.4017 4.25065 13.7982 4.40506 14.1012C4.54088 14.3678 4.75744 14.5849 5.02401 14.7207C5.32675 14.875 5.72327 14.875 6.51513 14.875H10.4862C11.278 14.875 11.674 14.875 11.9767 14.7207C12.2433 14.5849 12.4606 14.3678 12.5964 14.1012C12.7507 13.7985 12.7507 13.4024 12.7507 12.6105V4.25M4.25065 4.25H5.66732M4.25065 4.25H2.83398M5.66732 4.25H11.334M5.66732 4.25C5.66732 3.58992 5.66732 3.26004 5.77515 2.99969C5.91894 2.65257 6.19454 2.37662 6.54167 2.23284C6.80201 2.125 7.13223 2.125 7.79232 2.125H9.20898C9.86907 2.125 10.1991 2.125 10.4595 2.23284C10.8066 2.37662 11.0823 2.65257 11.2261 2.99969C11.3339 3.26004 11.334 3.58992 11.334 4.25M11.334 4.25H12.7507M12.7507 4.25H14.1673" stroke="#EE1A1E" stroke-width="1.2" stroke-linecap="round" stroke-linejoin="round"/>
</svg>
